HIERARCHY
ROOT Hips
{
	OFFSET	0.00	0.00	0.00
	CHANNELS 6 Xposition Yposition Zposition Zrotation Xrotation Yrotation
	JOINT LeftUpLeg
	{
		OFFSET	 0.126116	-0.014019	-0.065224
		CHANNELS 3 Zrotation Xrotation Yrotation
		JOINT LeftLeg
		{
			OFFSET	 0.000000	 0.000000	 0.569914
			CHANNELS 3 Zrotation Xrotation Yrotation
			JOINT LeftFoot
			{
				OFFSET	 0.000000	 0.000000	 0.544423
				CHANNELS 3 Zrotation Xrotation Yrotation
				JOINT LeftToeBase
				{
					OFFSET	 0.000000	 0.000000	 0.207117
					CHANNELS 3 Zrotation Xrotation Yrotation
					End Site
					{
						OFFSET	 0.000000	 0.000000	 0.207117
					}
				}
			}
		}
	}
	JOINT RightUpLeg
	{
		OFFSET	-0.124023	-0.008373	-0.065224
		CHANNELS 3 Zrotation Xrotation Yrotation
		JOINT RightLeg
		{
			OFFSET	 0.000000	 0.000000	 0.570047
			CHANNELS 3 Zrotation Xrotation Yrotation
			JOINT RightFoot
			{
				OFFSET	 0.000000	 0.000000	 0.544354
				CHANNELS 3 Zrotation Xrotation Yrotation
				JOINT RightToeBase
				{
					OFFSET	 0.000000	 0.000000	 0.207540
					CHANNELS 3 Zrotation Xrotation Yrotation
					End Site
					{
						OFFSET	 0.000000	 0.000000	 0.207540
					}
				}
			}
		}
	}
	JOINT Spine
	{
		OFFSET	 0.000184	-0.007763	 0.117403
		CHANNELS 3 Zrotation Xrotation Yrotation
		JOINT Spine1
		{
			OFFSET	 0.000000	 0.000000	 0.137269
			CHANNELS 3 Zrotation Xrotation Yrotation
			JOINT Spine2
			{
				OFFSET	 0.000000	 0.000000	 0.156879
				CHANNELS 3 Zrotation Xrotation Yrotation
				JOINT LeftShoulder
				{
					OFFSET	 0.080501	-0.002496	 0.160144
					CHANNELS 3 Zrotation Xrotation Yrotation
					JOINT LeftArm
					{
						OFFSET	 0.000000	 0.000000	 0.164363
						CHANNELS 3 Zrotation Xrotation Yrotation
						JOINT LeftForeArm
						{
							OFFSET	 0.000000	 0.000000	 0.364576
							CHANNELS 3 Zrotation Xrotation Yrotation
							JOINT LeftHand
							{
								OFFSET	 0.000000	 0.000000	 0.360812
								CHANNELS 3 Zrotation Xrotation Yrotation
								JOINT LeftHandIndex1
								{
									OFFSET	 0.000000	 0.000000	 0.086006
									CHANNELS 3 Zrotation Xrotation Yrotation
									JOINT LeftHandIndex2
									{
										OFFSET	 0.000000	 0.000000	 0.047237
										CHANNELS 3 Zrotation Xrotation Yrotation
										JOINT LeftHandIndex3
										{
											OFFSET	-0.004284	-0.000551	 0.038165
											CHANNELS 3 Zrotation Xrotation Yrotation
											End Site
											{
												OFFSET	-0.004284	-0.000551	 0.038165
											}
										}
									}
								}
							}
						}
					}
				}
				JOINT Neck
				{
					OFFSET	 0.000000	 0.000000	 0.176489
					CHANNELS 3 Zrotation Xrotation Yrotation
					JOINT Head
					{
						OFFSET	 0.000000	-0.001747	 0.077940
						CHANNELS 3 Zrotation Xrotation Yrotation
						End Site
						{
							OFFSET	 0.000000	-0.001747	 0.077940
						}
					}
				}
				JOINT RightShoulder
				{
					OFFSET	-0.080363	 0.000306	 0.159706
					CHANNELS 3 Zrotation Xrotation Yrotation
					JOINT RightArm
					{
						OFFSET	 0.000000	 0.000000	 0.164196
						CHANNELS 3 Zrotation Xrotation Yrotation
						JOINT RightForeArm
						{
							OFFSET	 0.000000	 0.000000	 0.365611
							CHANNELS 3 Zrotation Xrotation Yrotation
							JOINT RightHand
							{
								OFFSET	 0.000000	 0.000000	 0.360648
								CHANNELS 3 Zrotation Xrotation Yrotation
								JOINT RightHandIndex1
								{
									OFFSET	 0.000000	 0.000000	 0.069977
									CHANNELS 3 Zrotation Xrotation Yrotation
									JOINT RightHandIndex2
									{
										OFFSET	 0.000000	 0.000000	 0.052305
										CHANNELS 3 Zrotation Xrotation Yrotation
										JOINT RightHandIndex3
										{
											OFFSET	 0.009002	-0.000782	 0.042196
											CHANNELS 3 Zrotation Xrotation Yrotation
											End Site
											{
												OFFSET	 0.009002	-0.000782	 0.042196
											}
										}
									}
								}
							}
						}
					}
				}
			}
		}
	}
}
MOTION
Frames:    6
Frame Time: 0.03333334
-0.714108	-1.653095	 1.274027	-176.462400	 6.139570	-2.373686	-31.910390	-8.040680	-177.220700	-0.404043	-9.123012	 0.245520	-14.943940	 50.606620	 4.169882	-2.385833	 28.452760	 0.000004	 28.150760	-13.590860	-179.980300	-5.219926	-22.854100	 2.212355	-44.143880	 85.613440	 55.149620	 2.384659	 28.388700	-0.000001	-11.467640	 6.294314	 4.493576	-6.654964	-7.409757	-16.277060	 13.761310	-9.017456	 16.821410	-91.776180	 78.527430	 180.000000	-35.603390	 3.392097	 13.950450	-10.123840	-7.733301	-57.368990	 7.531656	-3.373386	-4.127511	-4.131196	 21.524690	 0.986298	-5.167839	 0.733520	 3.519257	-1.378229	 35.397820	-2.634230	 1.511726	 8.079613	 0.854779	-12.638750	-9.372927	-4.443857	 89.782180	 78.203890	 179.999900	-7.995983	 5.159183	-15.475600	-0.342240	-16.272570	 50.135580	-16.471860	 40.250030	 80.272900	 5.715225	 19.176060	-3.692089	 5.027514	 0.245388	-9.378011	-2.350882	 35.473990	 5.254307
-0.713102	-1.651649	 1.273716	-176.424600	 6.152100	-2.480463	-31.867400	-8.680328	-177.182300	-0.136721	-10.867170	 0.342370	-15.634580	 51.271090	 4.788736	-2.385833	 28.452760	 0.000004	 28.699350	-13.960690	-179.735400	-5.488875	-23.564600	 2.168819	-52.027070	 86.438500	 63.234930	 2.384659	 28.388700	-0.000001	-11.777500	 6.128895	 4.577660	-6.960920	-6.693765	-16.425150	 13.879860	-9.321726	 16.912920	-91.776150	 78.527420	 180.000000	-34.780630	 4.612404	 16.910120	-10.844670	-8.016017	-62.208270	 7.422100	-3.439389	-4.088939	-4.131196	 21.524690	 0.986298	-5.167839	 0.733520	 3.519257	-1.378229	 35.397820	-2.634230	 1.478800	 8.047497	 0.953900	-12.598640	-9.240545	-4.391007	 89.782100	 78.203890	 180.000000	-8.166477	 6.386142	-16.318680	 0.578612	-16.920210	 53.278660	-15.468600	 40.187030	 77.740230	 5.715225	 19.176060	-3.692089	 5.027514	 0.245388	-9.378011	-2.350882	 35.473990	 5.254307
-0.707060	-1.642384	 1.271957	-176.282200	 6.314650	-2.943898	-32.003810	-10.908910	-177.119300	 1.362401	-18.336730	 1.043804	-19.438430	 54.324710	 8.069525	-2.385833	 28.452760	 0.000004	 31.083270	-16.157780	-178.216600	-6.597641	-27.412290	 1.983840	-142.338000	 87.781680	 154.315900	 2.384659	 28.388700	-0.000001	-13.734670	 5.055839	 4.813298	-8.869256	-1.854399	-17.445490	 14.816630	-11.507910	 17.927510	-91.776200	 78.527400	 180.000000	-29.057530	 13.178340	 31.722360	-14.475770	-8.435856	-86.103570	 6.876835	-3.761599	-3.899997	-4.131196	 21.524690	 0.986298	-5.167839	 0.733520	 3.519257	-1.378229	 35.397820	-2.634230	 1.391425	 7.958769	 1.321156	-12.432080	-8.822539	-4.219462	 89.782140	 78.203920	 180.000000	-9.357985	 14.817420	-19.313150	 5.647329	-19.413960	 69.242660	-12.693580	 38.164330	 65.041000	 5.715225	 19.176060	-3.692089	 5.027514	 0.245388	-9.378011	-2.350882	 35.473990	 5.254307
-0.675911	-1.583472	 1.267133	-176.803600	 10.883770	-1.976536	-37.641530	-11.321450	 179.367000	 4.108496	-34.253770	 3.419985	-31.695940	 60.201180	 20.143710	-2.385833	 28.452760	 0.000004	 35.584850	-27.909590	-168.982600	-6.373077	-36.868350	 2.719872	 45.158950	 76.882260	-36.918110	 2.384659	 28.388700	-0.000001	-24.158070	-1.671132	-4.587121	-21.302950	 20.864730	-10.221550	 20.089040	-23.938760	 20.821840	-91.776140	 78.527400	 180.000000	 37.801550	 50.906930	-30.784320	-14.026030	-7.290248	-81.996250	 5.848798	-4.380307	-3.580268	-4.131196	 21.524690	 0.986298	-5.167839	 0.733520	 3.519257	-1.378229	 35.397820	-2.634230	 2.014498	 8.353567	 0.588388	-12.352870	-9.709147	-3.904055	 89.781970	 78.289310	-179.966800	-31.433470	 66.334350	 11.116200	 4.005053	-20.005810	 65.597040	-56.429100	 4.843856	 52.796750	 5.715225	 19.176060	-3.692089	 5.027514	 0.245388	-9.378011	-2.350882	 35.473990	 5.254307
-0.663649	-1.560706	 1.266558	-176.881300	 12.658470	-0.846120	-39.160290	-9.741377	 177.633300	 2.542577	-36.153790	 2.655211	-30.015720	 58.701680	 19.853640	-2.385833	 28.452760	 0.000004	 36.663050	-30.794160	-166.824900	-7.004592	-37.129480	 2.353837	 42.796280	 73.102710	-35.465520	 2.384659	 28.388700	-0.000001	-27.094680	-2.435568	-9.693862	-25.156370	 23.152820	-5.040715	 20.379130	-26.207600	 19.679360	-91.776180	 78.527400	-180.000000	 36.784930	 50.590390	-55.339840	-9.747734	-5.363071	-45.212530	 5.754003	-4.575760	-3.554718	-4.131196	 21.524690	 0.986298	-5.167839	 0.733520	 3.519257	-1.378229	 35.397820	-2.634230	 2.308496	 8.461614	 0.109445	-12.332410	-9.985388	-3.399190	 89.781870	 78.307070	-179.959400	-43.993930	 71.332350	 33.706530	-4.164432	-14.509010	 39.347010	-65.068830	-14.079430	 50.907390	 5.715225	 19.176060	-3.692089	 5.027514	 0.245388	-9.378011	-2.350882	 35.473990	 5.254307
-0.628868	-1.506212	 1.266326	-176.912800	 12.734810	 0.169277	-36.998770	-5.019170	 176.666100	 0.975107	-36.362970	 1.736523	-20.404560	 47.083940	 13.419520	-2.385833	 28.452760	 0.000004	 36.007130	-31.884530	-167.266100	-8.185806	-36.386640	 1.611122	 40.862340	 69.621770	-34.183510	 2.384659	 28.388700	-0.000001	-28.976330	-1.871782	-12.554050	-27.140070	 23.675430	-1.176461	 19.793980	-27.604670	 17.515190	-91.776110	 78.527400	 179.999900	 27.426900	 53.166840	-72.625580	-6.905986	-0.071462	-0.498686	 5.872842	-4.733225	-3.605783	-4.131196	 21.524690	 0.986298	-5.167839	 0.733520	 3.519257	-1.378229	 35.397820	-2.634230	 2.489266	 8.845366	-0.080496	-12.329440	-10.192060	-3.779700	 89.781950	 78.316030	-179.955400	-42.185480	 69.768580	 49.577080	-8.798569	-0.189331	 0.477523	-68.116130	-36.507660	 49.947170	 5.715225	 19.176060	-3.692089	 5.027514	 0.245388	-9.378011	-2.350882	 35.473990	 5.254307
